<svg width="755" height="342" viewBox="0 0 755 342" fill="none" xmlns="http://www.w3.org/2000/svg">
<path d="M473.632 109.841C505.027 106.401 546.743 210.906 418.154 192.413L472.489 109.841H473.632Z" fill="url(#paint0_linear_6_13)"/>
<path d="M405.136 191.172C407.544 185.971 457.747 108.473 482.547 70.3735L448.572 70.3735C442.121 69.5134 431.8 74.6742 426.209 83.2754L384.923 149.935C381.483 158.106 380.192 152.946 378.472 149.935L339.948 83.2754C336.756 77.2545 328.585 69.0834 314.823 70.3735L278.698 70.3735L356.539 193.371C377.182 235.948 398.142 206.273 405.136 191.172Z" fill="url(#paint1_linear_6_13)"/>
<path d="M344.067 69.5134C354.818 32.9581 411.157 17.9059 431.8 58.7618C426.295 54.9773 396.248 105.352 381.912 131.012L344.067 69.5134Z" fill="url(#paint2_linear_6_13)"/>
<path d="M282.37 109.161C250.916 106.31 211.167 211.579 339.386 190.678L283.513 109.14L282.37 109.161Z" fill="url(#paint3_linear_6_13)"/>
<path d="M91.4545 247.455L102.705 282.818H103.136L114.409 247.455H125.318L109.273 294H96.5909L80.5227 247.455H91.4545ZM134.12 294V247.455H165.484V255.568H143.961V266.659H163.87V274.773H143.961V285.886H165.575V294H134.12ZM215.44 247.455V294H206.94L186.69 264.705H186.349V294H176.508V247.455H185.144L205.235 276.727H205.644V247.455H215.44ZM243.27 294H226.77V247.455H243.407C248.089 247.455 252.119 248.386 255.498 250.25C258.877 252.098 261.475 254.758 263.293 258.227C265.127 261.697 266.043 265.848 266.043 270.682C266.043 275.53 265.127 279.697 263.293 283.182C261.475 286.667 258.861 289.341 255.452 291.205C252.058 293.068 247.998 294 243.27 294ZM236.611 285.568H242.861C245.77 285.568 248.217 285.053 250.202 284.023C252.202 282.977 253.702 281.364 254.702 279.182C255.717 276.985 256.225 274.152 256.225 270.682C256.225 267.242 255.717 264.432 254.702 262.25C253.702 260.068 252.21 258.462 250.225 257.432C248.24 256.402 245.793 255.886 242.884 255.886H236.611V285.568ZM319.306 270.727C319.306 275.803 318.344 280.121 316.419 283.682C314.51 287.242 311.904 289.962 308.601 291.841C305.313 293.705 301.616 294.636 297.51 294.636C293.374 294.636 289.662 293.697 286.374 291.818C283.086 289.939 280.488 287.22 278.578 283.659C276.669 280.098 275.715 275.788 275.715 270.727C275.715 265.652 276.669 261.333 278.578 257.773C280.488 254.212 283.086 251.5 286.374 249.636C289.662 247.758 293.374 246.818 297.51 246.818C301.616 246.818 305.313 247.758 308.601 249.636C311.904 251.5 314.51 254.212 316.419 257.773C318.344 261.333 319.306 265.652 319.306 270.727ZM309.328 270.727C309.328 267.439 308.836 264.667 307.851 262.409C306.881 260.152 305.51 258.439 303.738 257.273C301.965 256.106 299.889 255.523 297.51 255.523C295.131 255.523 293.056 256.106 291.283 257.273C289.51 258.439 288.131 260.152 287.147 262.409C286.177 264.667 285.692 267.439 285.692 270.727C285.692 274.015 286.177 276.788 287.147 279.045C288.131 281.303 289.51 283.015 291.283 284.182C293.056 285.348 295.131 285.932 297.51 285.932C299.889 285.932 301.965 285.348 303.738 284.182C305.51 283.015 306.881 281.303 307.851 279.045C308.836 276.788 309.328 274.015 309.328 270.727ZM329.795 294V247.455H348.159C351.674 247.455 354.674 248.083 357.159 249.341C359.659 250.583 361.561 252.348 362.864 254.636C364.182 256.909 364.841 259.583 364.841 262.659C364.841 265.75 364.174 268.409 362.841 270.636C361.508 272.848 359.576 274.545 357.045 275.727C354.53 276.909 351.485 277.5 347.909 277.5H335.614V269.591H346.318C348.197 269.591 349.758 269.333 351 268.818C352.242 268.303 353.167 267.53 353.773 266.5C354.394 265.47 354.705 264.189 354.705 262.659C354.705 261.114 354.394 259.811 353.773 258.75C353.167 257.689 352.235 256.886 350.977 256.341C349.735 255.78 348.167 255.5 346.273 255.5H339.636V294H329.795ZM354.932 272.818L366.5 294H355.636L344.318 272.818H354.932ZM400.245 260.841C400.064 259.008 399.283 257.583 397.905 256.568C396.526 255.553 394.655 255.045 392.291 255.045C390.685 255.045 389.329 255.273 388.223 255.727C387.117 256.167 386.268 256.78 385.677 257.568C385.102 258.356 384.814 259.25 384.814 260.25C384.783 261.083 384.958 261.811 385.336 262.432C385.73 263.053 386.268 263.591 386.95 264.045C387.632 264.485 388.42 264.871 389.314 265.205C390.208 265.523 391.162 265.795 392.177 266.023L396.359 267.023C398.389 267.477 400.253 268.083 401.95 268.841C403.647 269.598 405.117 270.53 406.359 271.636C407.602 272.742 408.564 274.045 409.245 275.545C409.942 277.045 410.298 278.765 410.314 280.705C410.298 283.553 409.571 286.023 408.132 288.114C406.708 290.189 404.647 291.803 401.95 292.955C399.268 294.091 396.033 294.659 392.245 294.659C388.488 294.659 385.215 294.083 382.427 292.932C379.655 291.78 377.488 290.076 375.927 287.818C374.382 285.545 373.571 282.735 373.495 279.386H383.018C383.124 280.947 383.571 282.25 384.359 283.295C385.162 284.326 386.23 285.106 387.564 285.636C388.912 286.152 390.435 286.409 392.132 286.409C393.798 286.409 395.245 286.167 396.473 285.682C397.715 285.197 398.677 284.523 399.359 283.659C400.041 282.795 400.382 281.803 400.382 280.682C400.382 279.636 400.071 278.758 399.45 278.045C398.844 277.333 397.95 276.727 396.768 276.227C395.602 275.727 394.17 275.273 392.473 274.864L387.405 273.591C383.48 272.636 380.382 271.144 378.109 269.114C375.836 267.083 374.708 264.348 374.723 260.909C374.708 258.091 375.458 255.629 376.973 253.523C378.503 251.417 380.602 249.773 383.268 248.591C385.935 247.409 388.965 246.818 392.359 246.818C395.814 246.818 398.829 247.409 401.405 248.591C403.995 249.773 406.011 251.417 407.45 253.523C408.889 255.629 409.632 258.068 409.677 260.841H400.245Z" fill="#023559"/>
<path d="M484.091 262H478.455C478.121 260.379 477.538 258.955 476.705 257.727C475.886 256.5 474.886 255.47 473.705 254.636C472.538 253.788 471.242 253.152 469.818 252.727C468.394 252.303 466.909 252.091 465.364 252.091C462.545 252.091 459.992 252.803 457.705 254.227C455.432 255.652 453.621 257.75 452.273 260.523C450.939 263.295 450.273 266.697 450.273 270.727C450.273 274.758 450.939 278.159 452.273 280.932C453.621 283.705 455.432 285.803 457.705 287.227C459.992 288.652 462.545 289.364 465.364 289.364C466.909 289.364 468.394 289.152 469.818 288.727C471.242 288.303 472.538 287.674 473.705 286.841C474.886 285.992 475.886 284.955 476.705 283.727C477.538 282.485 478.121 281.061 478.455 279.455H484.091C483.667 281.833 482.894 283.962 481.773 285.841C480.652 287.72 479.258 289.318 477.591 290.636C475.924 291.939 474.053 292.932 471.977 293.614C469.917 294.295 467.712 294.636 465.364 294.636C461.394 294.636 457.864 293.667 454.773 291.727C451.682 289.788 449.25 287.03 447.477 283.455C445.705 279.879 444.818 275.636 444.818 270.727C444.818 265.818 445.705 261.576 447.477 258C449.25 254.424 451.682 251.667 454.773 249.727C457.864 247.788 461.394 246.818 465.364 246.818C467.712 246.818 469.917 247.159 471.977 247.841C474.053 248.523 475.924 249.523 477.591 250.841C479.258 252.144 480.652 253.735 481.773 255.614C482.894 257.477 483.667 259.606 484.091 262ZM496.399 294V247.455H502.035V289H523.672V294H496.399ZM573.059 270.727C573.059 275.636 572.173 279.879 570.4 283.455C568.627 287.03 566.195 289.788 563.105 291.727C560.014 293.667 556.483 294.636 552.514 294.636C548.544 294.636 545.014 293.667 541.923 291.727C538.832 289.788 536.4 287.03 534.627 283.455C532.855 279.879 531.968 275.636 531.968 270.727C531.968 265.818 532.855 261.576 534.627 258C536.4 254.424 538.832 251.667 541.923 249.727C545.014 247.788 548.544 246.818 552.514 246.818C556.483 246.818 560.014 247.788 563.105 249.727C566.195 251.667 568.627 254.424 570.4 258C572.173 261.576 573.059 265.818 573.059 270.727ZM567.605 270.727C567.605 266.697 566.93 263.295 565.582 260.523C564.248 257.75 562.438 255.652 560.15 254.227C557.877 252.803 555.332 252.091 552.514 252.091C549.695 252.091 547.142 252.803 544.855 254.227C542.582 255.652 540.771 257.75 539.423 260.523C538.089 263.295 537.423 266.697 537.423 270.727C537.423 274.758 538.089 278.159 539.423 280.932C540.771 283.705 542.582 285.803 544.855 287.227C547.142 288.652 549.695 289.364 552.514 289.364C555.332 289.364 557.877 288.652 560.15 287.227C562.438 285.803 564.248 283.705 565.582 280.932C566.93 278.159 567.605 274.758 567.605 270.727ZM616.282 247.455H621.918V278.273C621.918 281.455 621.168 284.295 619.668 286.795C618.183 289.28 616.085 291.242 613.373 292.682C610.661 294.106 607.479 294.818 603.827 294.818C600.176 294.818 596.994 294.106 594.282 292.682C591.57 291.242 589.464 289.28 587.964 286.795C586.479 284.295 585.736 281.455 585.736 278.273V247.455H591.373V277.818C591.373 280.091 591.873 282.114 592.873 283.886C593.873 285.644 595.297 287.03 597.145 288.045C599.009 289.045 601.236 289.545 603.827 289.545C606.418 289.545 608.645 289.045 610.509 288.045C612.373 287.03 613.797 285.644 614.782 283.886C615.782 282.114 616.282 280.091 616.282 277.818V247.455ZM650.738 294H636.374V247.455H651.374C655.889 247.455 659.753 248.386 662.965 250.25C666.177 252.098 668.639 254.758 670.351 258.227C672.063 261.682 672.919 265.818 672.919 270.636C672.919 275.485 672.056 279.659 670.328 283.159C668.601 286.644 666.086 289.326 662.783 291.205C659.48 293.068 655.465 294 650.738 294ZM642.01 289H650.374C654.222 289 657.412 288.258 659.942 286.773C662.472 285.288 664.359 283.174 665.601 280.432C666.844 277.689 667.465 274.424 667.465 270.636C667.465 266.879 666.851 263.644 665.624 260.932C664.397 258.205 662.563 256.114 660.124 254.659C657.684 253.189 654.647 252.455 651.01 252.455H642.01V289Z" fill="#3C3C3C"/>
<defs>
<linearGradient id="paint0_linear_6_13" x1="462.077" y1="109.411" x2="462.077" y2="194.609" gradientUnits="userSpaceOnUse">
<stop stop-color="#053855"/>
<stop offset="0.538462" stop-color="#08A2D4"/>
</linearGradient>
<linearGradient id="paint1_linear_6_13" x1="288.207" y1="168.56" x2="446.639" y2="80.4991" gradientUnits="userSpaceOnUse">
<stop offset="0.197115" stop-color="#053855"/>
<stop offset="1" stop-color="#08A2D4"/>
</linearGradient>
<linearGradient id="paint2_linear_6_13" x1="288.207" y1="168.56" x2="446.639" y2="80.4991" gradientUnits="userSpaceOnUse">
<stop offset="0.197115" stop-color="#053855"/>
<stop offset="1" stop-color="#08A2D4"/>
</linearGradient>
<linearGradient id="paint3_linear_6_13" x1="293.915" y1="108.515" x2="295.513" y2="193.697" gradientUnits="userSpaceOnUse">
<stop stop-color="#053855"/>
<stop offset="0.538462" stop-color="#08A2D4"/>
</linearGradient>
</defs>
</svg>
